Music_UntitledSong:
	channel_count 4
	channel 1, Music_UntitledSong_Ch1
	channel 2, Music_UntitledSong_Ch2
	channel 3, Music_UntitledSong_Ch3
	channel 4, Music_UntitledSong_Ch4

Music_UntitledSong_Ch1:
	tempo 256
	volume 7, 7
	note_type 12, 15, 8
.mainLoop:
	octave 3
	tempo 240
	rest 1
	duty_cycle 1
	tempo 130
	volume_envelope 15, 1
	note F_, 1
	note F_, 2
	rest 1
	note F_, 1
	note F_, 2
	rest 1
	note F_, 1
	note F_, 2
	rest 1
	note F_, 1
	note F_, 2
	rest 1
	note F_, 1
	note F_, 2
	rest 1
	note F_, 1
	octave 4
	note_type 12, 15, 1
	note E_, 3
	volume_envelope 15, 8
	note F_, 7
	note D_, 1
	note C_, 3
	rest 16
	rest 6
	octave 3
	note A_, 2
	volume_envelope 7, 8
	rest 2
	note F_, 2
	rest 2
	note C_, 2
	note F_, 1
	rest 3
	note A_, 1
	octave 2
	note F_, 1
	note F_, 2
	octave 3
	note D_, 4
	rest 16
	rest 16
	rest 16
	rest 16
	rest 16
	rest 16
	rest 16
	rest 16
	rest 16
	rest 16
	rest 16
	octave 8
	sound_loop 0, .mainLoop

Music_UntitledSong_Ch2:
	note_type 12, 15, 8
.mainLoop:
	rest 1
	octave 3
	note C_, 1
	octave 2
	duty_cycle 1
	note C_, 2
	octave 3
	rest 1
	note C_, 1
	octave 2
	note F_, 2
	rest 1
	octave 3
	note C_, 1
	octave 2
	note C_, 2
	octave 3
	rest 1
	note C_, 1
	octave 2
	note F_, 2
	rest 1
	octave 3
	note C_, 1
	octave 2
	note C_, 2
	octave 3
	rest 1
	note C_, 1
	octave 4
	note C_, 10
	octave 3
	note A#, 2
	note A_, 2
	octave 2
	note F_, 2
	rest 2
	note C_, 2
	rest 2
	note F_, 2
	rest 2
	note C_, 2
	rest 2
	note F_, 2
	octave 4
	rest 2
	note D_, 4
	octave 3
	note A#, 1
	note A#, 3
	note G#, 2
	note F_, 2
	note D_, 4
	transpose 0, 0
	note D#, 1
	note E_, 1
	note F_, 2
	note A#, 2
	rest 16
	rest 16
	rest 16
	rest 16
	rest 16
	rest 16
	rest 16
	rest 16
	rest 16
	rest 16
	rest 16
	rest 2
	octave 8
	sound_loop 0, .mainLoop

Music_UntitledSong_Ch3:
	note_type 12, 1, 0
.mainLoop:
	rest 1
	rest 1
	octave 4
	note G_, 2
	rest 2
	note C_, 2
	rest 2
	note G_, 2
	rest 2
	note C_, 2
	rest 2
	note G_, 2
	note C_, 2
	octave 2
	note F_, 2
	rest 2
	note C_, 2
	rest 2
	note F_, 2
	note C_, 2
	rest 2
	volume_envelope 1, 2
	note A_, 2
	rest 2
	note E_, 2
	rest 2
	volume_envelope 3, 0
	note A_, 2
	rest 2
	note E_, 2
	rest 2
	note A_, 2
	rest 2
	note E_, 2
	rest 2
	note A_, 2
	rest 2
	note E_, 2
	rest 2
	note A_, 2
	rest 2
	note F_, 2
	rest 2
	note A_, 2
	rest 2
	note F_, 2
	rest 16
	rest 16
	rest 16
	rest 16
	rest 16
	rest 16
	rest 16
	rest 16
	rest 16
	rest 16
	rest 14
	octave 8
	sound_loop 0, .mainLoop

Music_UntitledSong_Ch4:
	toggle_noise 0
	drum_speed 12
.mainLoop:
	rest 1
	octave 1
	toggle_noise
	toggle_noise 3
	drum_note 8, 1
	drum_note 8, 1
	rest 2
	drum_note 8, 1
	drum_note 8, 1
	rest 2
	drum_note 8, 1
	drum_note 8, 1
	rest 2
	drum_note 8, 1
	drum_note 8, 1
	rest 2
	drum_note 8, 1
	drum_note 8, 1
	rest 2
	drum_note 8, 1
	drum_note 8, 1
	rest 2
	drum_note 8, 1
	drum_note 8, 1
	rest 2
	drum_note 8, 1
	drum_note 8, 1
	rest 2
	drum_note 8, 1
	drum_note 8, 1
	rest 2
	drum_note 8, 1
	drum_note 8, 1
	rest 2
	drum_note 8, 1
	drum_note 8, 1
	rest 2
	drum_note 8, 1
	drum_note 8, 1
	rest 2
	drum_note 8, 1
	drum_note 8, 1
	rest 2
	drum_note 8, 1
	drum_note 8, 1
	rest 2
	drum_note 8, 1
	drum_note 8, 1
	rest 2
	drum_note 8, 1
	drum_note 8, 1
	rest 2
	drum_note 8, 1
	drum_note 8, 1
	rest 2
	drum_note 8, 1
	drum_note 8, 1
	rest 2
	drum_note 8, 1
	drum_note 8, 1
	rest 2
	drum_note 8, 1
	drum_note 8, 1
	rest 2
	drum_note 8, 1
	drum_note 8, 1
	rest 16
	rest 16
	rest 16
	rest 16
	rest 16
	rest 16
	rest 16
	rest 16
	rest 16
	octave 8
	rest 16
	rest 13
	sound_loop 0, .mainLoop
