Music_DrLaventon:
	channel_count 4
	channel 1, Music_DrLaventon_Ch1
	channel 2, Music_DrLaventon_Ch2
	channel 3, Music_DrLaventon_Ch3
	channel 4, Music_DrLaventon_Ch4

Music_DrLaventon_Ch1:
	tempo 256
	volume 7, 7
	note_type 12, 15, 8
	rest 3
	octave 3
	duty_cycle 0
	note E_, 1
	octave 8
.mainLoop:
	octave 3
	duty_cycle 2
	note D_, 1
	rest 2
	note C_, 1
	octave 2
	note B_, 7
	note B_, 6
	note B_, 2
	octave 3
	note E_, 1
	rest 2
	note F_, 1
	note G_, 8
	note E_, 4
	note D_, 1
	rest 2
	note E_, 1
	note D_, 8
	rest 16
	rest 16
	rest 16
	rest 16
	rest 16
	rest 16
	rest 16
	rest 16
	rest 16
	rest 16
	rest 16
	rest 16
	rest 16
	rest 16
	rest 16
	rest 16
	rest 16
	rest 16
	rest 16
	rest 16
	octave 8
	rest 16
	rest 16
	rest 16
	rest 16
	rest 16
	rest 16
	rest 16
	rest 16
	rest 16
	rest 16
	rest 16
	rest 16
	rest 16
	rest 16
	rest 16
	rest 16
	rest 16
	rest 16
	rest 16
	rest 16
	rest 1
	sound_loop 0, .mainLoop

Music_DrLaventon_Ch2:
	note_type 12, 15, 8
	octave 1
	note G_, 1
	octave 2
	note D_, 1
	note G_, 1
	octave 3
	note C_, 1
	octave 8
.mainLoop:
	octave 2
	duty_cycle 3
	note B_, 1
	rest 2
	note A_, 1
	note G_, 7
	note G_, 6
	note G_, 2
	octave 3
	note C_, 1
	rest 2
	note D_, 1
	note E_, 8
	note C_, 4
	octave 2
	note B_, 1
	rest 2
	octave 3
	note C_, 1
	octave 2
	note B_, 8
	rest 16
	rest 16
	rest 16
	rest 16
	rest 16
	rest 16
	rest 16
	octave 8
	rest 16
	rest 16
	rest 16
	rest 16
	rest 16
	rest 16
	rest 16
	rest 16
	rest 16
	rest 16
	rest 16
	rest 16
	rest 16
	rest 16
	rest 16
	rest 16
	rest 16
	rest 16
	rest 16
	rest 16
	rest 16
	rest 16
	rest 16
	rest 16
	rest 16
	rest 16
	rest 16
	rest 16
	rest 16
	rest 16
	rest 16
	rest 16
	rest 16
	rest 1
	sound_loop 0, .mainLoop

Music_DrLaventon_Ch3:
	note_type 12, 1, 0
	rest 4
.mainLoop:
	octave 2
	vibrato 4, 2, 2
	volume_envelope 1, 5
	note D_, 2
	octave 1
	note B_, 1
	note A#, 1
	octave 2
	note D_, 2
	octave 1
	note B_, 1
	note A#, 1
	note B_, 1
	note A#, 1
	octave 2
	note D_, 2
	note E_, 2
	note D_, 2
	note D_, 2
	octave 1
	note B_, 1
	note A#, 1
	octave 2
	note D_, 2
	octave 1
	note B_, 1
	note A#, 1
	note B_, 1
	note A#, 1
	octave 2
	note D_, 2
	note E_, 2
	note D_, 2
	note D_, 2
	octave 1
	note B_, 1
	note A#, 1
	octave 2
	note D_, 2
	octave 1
	note B_, 1
	note A#, 1
	note B_, 1
	note A#, 1
	octave 2
	note D_, 2
	note E_, 2
	note D_, 2
	rest 16
	rest 16
	rest 16
	rest 16
	rest 16
	rest 16
	rest 16
	rest 16
	rest 16
	rest 16
	rest 16
	rest 16
	rest 16
	rest 16
	rest 16
	rest 16
	octave 8
	rest 16
	rest 16
	rest 16
	rest 16
	rest 16
	rest 16
	rest 16
	rest 16
	rest 16
	rest 16
	rest 16
	rest 16
	rest 16
	rest 16
	rest 16
	rest 16
	rest 16
	rest 16
	rest 16
	rest 16
	rest 16
	rest 16
	rest 16
	rest 16
	sound_loop 0, .mainLoop

Music_DrLaventon_Ch4:
	toggle_noise 0
	drum_speed 12
	rest 4
.mainLoop:
	toggle_noise
	toggle_noise 5
	drum_note 1, 2
	drum_note 1, 1
	drum_note 1, 1
	drum_note 1, 2
	drum_note 1, 1
	drum_note 1, 1
	drum_note 1, 1
	drum_note 1, 1
	drum_note 1, 6
	drum_note 1, 2
	drum_note 1, 1
	drum_note 1, 1
	drum_note 1, 2
	drum_note 1, 1
	drum_note 1, 1
	drum_note 1, 1
	drum_note 1, 1
	drum_note 1, 6
	drum_note 1, 2
	drum_note 1, 1
	drum_note 1, 1
	drum_note 1, 2
	drum_note 1, 1
	drum_note 1, 1
	drum_note 1, 1
	drum_note 1, 1
	drum_note 1, 6
	rest 16
	rest 16
	rest 16
	rest 16
	octave 8
	rest 16
	rest 16
	rest 16
	rest 16
	rest 16
	rest 16
	rest 16
	rest 16
	rest 16
	rest 16
	rest 16
	rest 16
	rest 16
	rest 16
	rest 16
	rest 16
	rest 16
	rest 16
	rest 16
	rest 16
	rest 16
	rest 16
	rest 16
	rest 16
	rest 16
	rest 16
	rest 16
	rest 16
	rest 16
	rest 16
	rest 16
	rest 16
	rest 16
	rest 16
	rest 16
	rest 16
	sound_loop 0, .mainLoop
