Music_PokeComCenter:
	channel_count 4
	channel 1, Music_PokeComCenter_Ch1
	channel 2, Music_PokeComCenter_Ch2
	channel 3, Music_PokeComCenter_Ch3
	channel 4, Music_PokeComCenter_Ch4

Music_PokeComCenter_Ch1:
	volume 7, 7
	pitch_offset 2
	vibrato 8, 2, 2
	stereo_panning TRUE, FALSE
	note_type 12, 10, 2
	octave 3
	tempo 144
	duty_cycle 3
	note E_, 2
	note F_, 2
	note G_, 4
	note G_, 2
	note A_, 1
	note A#, 1
	note B_, 4
Music_PokeComCenter_branch_179642:
	octave 3
	duty_cycle 1
	note E_, 2
	note C_, 2
	note E_, 1
	note_type 12, 10, 2
	rest 1
	octave 4
	note G_, 2
	octave 3
	note G_, 2
	octave 4
	note F_, 2
	octave 3
	note A_, 2
	octave 4
	note E_, 1
	octave 3
	note G_, 1
	octave 4
	note D_, 1
	octave 3
	note A_, 1
	note G_, 2
	note F_, 2
	note E_, 2
	duty_cycle 3
	octave 5
	note G_, 1
	rest 1
	note D_, 1
	rest 1
	octave 6
	note D_, 1
	octave 3
	rest 1
	duty_cycle 1
	note G_, 2
	note B_, 2
	note G_, 1
	octave 4
	note D_, 1
	octave 3
	note B_, 2
	octave 4
	note E_, 2
	octave 3
	note G_, 2
	octave 4
	note D_, 2
	octave 3
	note A_, 2
	note B_, 1
	note F_, 1
	octave 4
	note C_, 1
	octave 3
	note E_, 1
	octave 4
	note E_, 2
	octave 3
	note A_, 2
	note B_, 2
	octave 4
	note C_, 2
	octave 3
	note B_, 2
	note A_, 2
	note G_, 2
	note E_, 2
	note C_, 2
	note E_, 2
	octave 4
	note G_, 2
	octave 3
	note G_, 2
	octave 4
	note F_, 2
	octave 3
	note A_, 2
	octave 4
	note E_, 2
	note D_, 1
	octave 3
	note A_, 1
	note B_, 2
	note F_, 2
	note E_, 2
	duty_cycle 3
	octave 5
	note G_, 1
	rest 1
	note D_, 1
	rest 1
	octave 6
	note D_, 1
	octave 3
	rest 1
	duty_cycle 1
	note G_, 2
	note G_, 2
	note D_, 2
	note G_, 2
	octave 4
	note E_, 2
	octave 3
	note A_, 2
	octave 4
	note D_, 2
	octave 3
	note G_, 2
	note B_, 2
	octave 4
	note C_, 2
	octave 3
	note D_, 2
	note C_, 2
	note D_, 2
	note G_, 1
	note E_, 1
	note A_, 1
	note F_, 1
	note B_, 1
	note G_, 1
	octave 4
	note D_, 2
	note E_, 2
	octave 3
	note D_, 2
	note C_, 4
	octave 4
	note G_, 2
	octave 3
	note E_, 2
	note F_, 2
	note G_, 2
	octave 4
	note F_, 1
	octave 3
	note A_, 1
	octave 4
	note G_, 1
	octave 3
	note G_, 1
	octave 4
	note F_, 1
	octave 3
	note F_, 1
	octave 4
	note E_, 1
	octave 3
	note E_, 1
	octave 4
	note D_, 2
	octave 3
	note E_, 2
	note F_, 2
	note G_, 2
	note B_, 2
	note E_, 2
	note D_, 4
	octave 4
	note D_, 2
	octave 3
	note C_, 2
	note D_, 2
	note F_, 2
	octave 4
	note E_, 1
	octave 3
	note E_, 1
	octave 4
	note F_, 1
	octave 3
	note F_, 1
	octave 4
	note E_, 1
	octave 3
	note G_, 1
	octave 4
	note D_, 1
	octave 3
	note A_, 1
	octave 4
	note C_, 2
	octave 3
	note G_, 6
	octave 4
	note E_, 2
	octave 3
	note B_, 2
	note A_, 4
	octave 4
	note G_, 2
	octave 3
	note A_, 2
	note B_, 2
	octave 4
	note C_, 2
	note F_, 1
	note D_, 1
	note E_, 1
	note C_, 1
	note F_, 1
	octave 3
	note B_, 1
	octave 4
	note G_, 1
	octave 3
	note B_, 1
	octave 4
	note A_, 2
	octave 3
	note B_, 2
	octave 4
	note C_, 2
	note D_, 2
	note G_, 2
	octave 3
	note A_, 2
	octave 4
	note F_, 1
	octave 3
	note G_, 1
	octave 4
	note E_, 1
	octave 3
	note G_, 1
	octave 4
	note F_, 2
	octave 3
	note G_, 2
	note A_, 2
	note F_, 2
	octave 4
	note E_, 1
	octave 3
	note G_, 1
	octave 4
	note F_, 1
	octave 3
	note F_, 1
	octave 4
	note E_, 1
	octave 3
	note E_, 1
	octave 4
	note D_, 1
	octave 3
	note D_, 1
	octave 4
	note F_, 1
	octave 3
	note F_, 1
	octave 4
	note G_, 1
	octave 3
	note F#, 1
	octave 4
	note F_, 1
	octave 3
	note G_, 1
	octave 4
	note G_, 1
	octave 3
	note A_, 1
	sound_jump Music_PokeComCenter_branch_179642

Music_PokeComCenter_Ch2:
	note_type 12, 12, 2
	duty_cycle 3
	rest 10
	octave 1
	note G_, 2
	note A_, 2
	note B_, 2
Music_PokeComCenter_branch_1796d6:
	octave 2
	note C_, 2
	note E_, 2
	octave 1
	note A_, 2
	octave 2
	note E_, 2
	note C_, 2
	note E_, 2
	octave 3
	note C_, 2
	octave 2
	note E_, 2
	note D_, 2
	octave 3
	note D#, 2
	octave 1
	note G_, 1
	octave 2
	note G_, 1
	octave 1
	note A_, 1
	octave 2
	note G_, 1
	note D_, 1
	octave 1
	note B_, 1
	octave 2
	note G_, 1
	octave 3
	note G_, 1
	octave 2
	note D_, 1
	note G_, 1
	note E_, 1
	note G_, 1
	rest 1
	octave 3
	note D_, 1
	octave 2
	note B_, 2
	octave 1
	note G_, 2
	octave 3
	note D_, 4
	octave 2
	note A_, 2
	note F_, 2
	note B_, 2
	note G_, 2
	octave 3
	note C_, 2
	octave 2
	note E_, 2
	note G_, 2
	note E_, 2
	note G_, 2
	octave 1
	note G_, 2
	octave 2
	note G_, 2
	note C_, 2
	note E_, 2
	octave 1
	note G_, 2
	octave 2
	note E_, 2
	note C_, 2
	note E_, 2
	note F_, 2
	note E_, 2
	note D_, 2
	note G_, 2
	octave 1
	note G_, 2
	octave 2
	note G_, 2
	note D_, 2
	note G_, 2
	octave 1
	note G_, 2
	octave 2
	note G_, 2
	note D_, 2
	note G_, 2
	octave 1
	note G_, 2
	octave 2
	note G_, 2
	note D_, 2
	note G_, 2
	note F_, 2
	note G_, 2
	note C_, 2
	note E_, 2
	octave 1
	note G_, 2
	octave 2
	note E_, 2
	note C_, 2
	note A_, 2
	note G_, 2
	note F_, 2
	note E_, 2
	note G_, 2
	note C_, 2
	note G_, 2
	note E_, 2
	note G_, 2
	note C_, 2
	note G_, 2
	note F_, 2
	note A_, 2
	note C_, 2
	note A_, 2
	note F_, 2
	note A_, 2
	note C_, 2
	note A_, 2
	note D_, 2
	note F_, 2
	octave 1
	note B_, 2
	octave 2
	note F_, 2
	note D_, 2
	note F_, 2
	octave 1
	note B_, 2
	octave 2
	note F_, 2
	note E_, 2
	note G_, 2
	note C_, 2
	note G_, 2
	note E_, 2
	note G_, 2
	note C_, 2
	note G_, 2
	note E_, 2
	note G_, 2
	note C_, 2
	note G_, 2
	note E_, 2
	note G_, 2
	note C_, 2
	note G_, 2
	note F_, 2
	note A_, 2
	note C_, 2
	note A_, 2
	note F_, 2
	note A_, 2
	note C_, 2
	note A_, 2
	note D_, 2
	note F_, 2
	octave 1
	note B_, 2
	octave 2
	note F_, 2
	note D_, 2
	note F_, 2
	octave 1
	note B_, 2
	octave 2
	note F_, 2
	note E_, 2
	note G_, 2
	note C_, 2
	note G_, 2
	note E_, 2
	note F_, 2
	note E_, 2
	note D_, 2
	sound_jump Music_PokeComCenter_branch_1796d6

Music_PokeComCenter_Ch3:
	note_type 12, 2, 4
	vibrato 16, 3, 4
	octave 4
	note G_, 2
	note A_, 2
	note B_, 4
	note B_, 2
	octave 5
	note C_, 2
	note D_, 4
	note_type 12, 2, 5
Music_PokeComCenter_branch_179788:
	note C_, 2
	octave 4
	note G_, 2
	octave 5
	note C_, 2
	note G_, 4
	note F_, 4
	note E_, 2
	note D_, 2
	octave 4
	note B_, 6
	note_type 12, 1, 0
	octave 3
	note B_, 2
	octave 4
	note D_, 2
	octave 3
	note A_, 2
	octave 4
	rest 2
	note_type 12, 2, 5
	note B_, 2
	note G_, 2
	note B_, 2
	octave 5
	note E_, 4
	note D_, 4
	octave 4
	note B_, 2
	octave 5
	note C_, 2
	note E_, 6
	octave 4
	note E_, 2
	note F_, 2
	note D_, 2
	note E_, 2
	octave 5
	note C_, 2
	octave 4
	note G_, 2
	octave 5
	note C_, 2
	note G_, 4
	note F_, 4
	note E_, 2
	note D_, 2
	octave 4
	note B_, 6
	note_type 12, 1, 0
	octave 3
	note G_, 2
	note B_, 2
	note A_, 2
	rest 2
	octave 4
	note_type 12, 2, 5
	note B_, 2
	note G_, 2
	note B_, 2
	octave 5
	note E_, 4
	note D_, 4
	octave 4
	note B_, 2
	octave 5
	note C_, 8
	octave 4
	note G_, 2
	note A_, 2
	note B_, 2
	octave 5
	note D_, 2
	vibrato 24, 4, 4
	note E_, 8
	note G_, 8
	note F_, 2
	note G_, 2
	note F_, 2
	note E_, 2
	note D_, 8
	octave 4
	note B_, 8
	octave 5
	note D_, 8
	note E_, 2
	note F_, 2
	note E_, 2
	note D_, 2
	note C_, 8
	note E_, 8
	note G_, 8
	note F_, 2
	note E_, 2
	note F_, 2
	note G_, 2
	note A_, 8
	note G_, 4
	note F_, 2
	note E_, 2
	note F_, 8
	note E_, 2
	note F_, 2
	note E_, 2
	note D_, 2
	note C_, 8
	vibrato 16, 3, 4
	sound_jump Music_PokeComCenter_branch_179788

Music_PokeComCenter_Ch4:
	toggle_noise 3
	stereo_panning FALSE, TRUE
	drum_speed 12
	drum_note 10, 8
	drum_note 10, 4
	drum_note 2, 1
	drum_note 2, 1
	drum_note 2, 1
	drum_note 2, 1
Music_PokeComCenter_branch_179813:
	drum_note 10, 2
	drum_note 2, 2
	drum_note 2, 2
	drum_note 2, 2
	drum_note 10, 2
	drum_note 2, 2
	drum_note 3, 2
	drum_note 2, 2
	sound_loop 3, Music_PokeComCenter_branch_179813
	drum_note 10, 2
	drum_note 2, 2
	drum_note 2, 2
	drum_note 2, 2
	drum_note 10, 2
	drum_note 3, 2
	drum_note 2, 1
	drum_note 2, 1
	drum_note 2, 1
	drum_note 2, 1
	sound_jump Music_PokeComCenter_branch_179813
