Music_UntitledSong:
	channel_count 4
	channel 1, Music_UntitledSong_Ch1
	channel 2, Music_UntitledSong_Ch2
	channel 3, Music_UntitledSong_Ch3
	channel 4, Music_UntitledSong_Ch4

Music_UntitledSong_Ch1:
	volume 7, 7
	note_type 12, 12, 1
	octave 4
	duty_cycle 2
	tempo 115
	note F_, 1
	note F#, 1
	note G_, 1
	note G#, 1
	note F#, 1
	note G_, 1
	note G#, 1
	note A_, 1
	note G_, 1
	note G#, 1
	note A_, 1
	note A#, 1
	note G#, 1
	note A_, 1
	note A#, 1
	note B_, 1
	note A_, 1
	note A#, 1
	note B_, 1
	octave 5
	note C_, 1
	octave 4
	note A#, 1
	note B_, 1
	octave 5
	note C_, 1
	note C#, 1
	octave 4
	note B_, 1
	octave 5
	note C_, 1
	note C#, 1
	note D_, 1
	volume_envelope 12, 8
	note E_, 12
	vibrato 2, 1, 0
	volume_envelope 10, 8
	octave 3
	note A_, 4
	octave 4
	note C_, 2
	octave 3
	note A_, 4
	note B_, 1
	octave 4
	note C_, 2
	rest 1
	octave 3
	note A_, 4
	note B_, 1
	octave 4
	note C_, 1
	octave 3
	note A_, 4
	octave 8
.mainLoop:
	octave 3
	vibrato 2, 2, 2
	volume_envelope 15, 8
	duty_cycle 1
	note F_, 4
	note F#, 1
	note G_, 1
	note E_, 4
	note D#, 1
	note D_, 1
	note C#, 4
	note D_, 3
	note D#, 1
	note E_, 4
	note B_, 1
	octave 4
	note C_, 1
	octave 3
	note E_, 4
	note B_, 4
	octave 5
	volume_envelope 10, 8
	note E_, 12
	volume_envelope 10, 1
	note F_, 4
	note E_, 4
	note D#, 1
	note D_, 3
	note D#, 1
	note E_, 3
	note G_, 1
	volume_envelope 10, 8
	note G#, 7
	note E_, 10
	rest 16
	volume_envelope 15, 8
	rest 16
	rest 16
	rest 16
	rest 16
	octave 8
	rest 16
	rest 16
	sound_loop 0, .mainLoop

Music_UntitledSong_Ch2:
	note_type 12, 10, 8
	octave 3
	duty_cycle 3
	note B_, 1
	note A#, 1
	note A_, 1
	note G#, 1
	note A#, 1
	note A_, 1
	note G#, 1
	note G_, 1
	note A_, 1
	note G#, 1
	note G_, 1
	note F#, 1
	note G#, 1
	note G_, 1
	note F#, 1
	note F_, 1
	note G_, 1
	note F#, 1
	note F_, 1
	note E_, 1
	note F#, 1
	note F_, 1
	note E_, 1
	note D#, 1
	note F_, 1
	note F#, 1
	note G_, 1
	note G#, 1
	octave 5
	note C_, 12
	octave 4
	volume_envelope 10, 1
	duty_cycle 2
	note E_, 4
	note F#, 1
	note F_, 1
	note E_, 4
	note F_, 3
	rest 1
	note E_, 4
	note F#, 1
	note F_, 1
	note E_, 4
	octave 8
.mainLoop:
	octave 4
	note D_, 4
	rest 2
	note E_, 4
	note F#, 1
	note F_, 1
	note E_, 4
	note F_, 3
	rest 1
	note E_, 4
	note F#, 1
	note F_, 1
	note E_, 4
	note G#, 4
	rest 2
	note E_, 4
	rest 2
	note E_, 4
	note F_, 3
	rest 1
	note E_, 4
	rest 2
	note E_, 4
	note D_, 4
	rest 2
	note F_, 4
	rest 16
	rest 16
	rest 16
	octave 8
	rest 16
	rest 16
	rest 16
	rest 16
	rest 10
	sound_loop 0, .mainLoop

Music_UntitledSong_Ch3:
	note_type 12, 1, 0
	octave 3
	note B_, 2
	note A_, 2
	octave 4
	note C_, 2
	octave 3
	note F_, 2
	octave 4
	note D_, 2
	note F_, 2
	note C_, 2
	octave 3
	note A_, 2
	octave 4
	note C_, 2
	note D_, 2
	note F_, 2
	note E_, 2
	note G#, 2
	note F#, 2
	note A_, 12
	vibrato 0, 1, 0
	volume_envelope 1, 12
	note E_, 2
	note C#, 2
	note E_, 2
	note C#, 2
	note E_, 2
	note F_, 2
	note D_, 2
	note E_, 2
	note C#, 2
	note E_, 2
	note C#, 2
	note E_, 2
	octave 8
.mainLoop:
	octave 4
	note F_, 2
	note D_, 2
	note F_, 2
	note E_, 2
	note C_, 2
	note E_, 2
	note C#, 2
	note E_, 2
	note F_, 2
	note D_, 2
	note E_, 2
	note C#, 2
	note E_, 2
	note C_, 2
	note E_, 2
	note F_, 2
	note D_, 2
	note E_, 2
	note C_, 2
	volume_envelope 1, 12
	note C#, 2
	note E_, 2
	note C#, 2
	note E_, 2
	note D_, 2
	note G#, 2
	note E_, 2
	note C#, 2
	note E_, 2
	note G#, 2
	note E_, 2
	note F_, 2
	note D_, 2
	note F_, 2
	note G#, 2
	note C#, 2
	rest 16
	rest 16
	rest 16
	rest 16
	rest 16
	rest 16
	rest 16
	rest 10
	octave 8
	sound_loop 0, .mainLoop

Music_UntitledSong_Ch4:
	toggle_noise 0
	drum_speed 12
	rest 16
	rest 12
	octave 6
	drum_note 3, 4
	drum_note 3, 1
	drum_note 3, 1
	drum_note 3, 1
	drum_note 3, 2
	drum_note 3, 1
	drum_note 3, 1
	drum_note 3, 1
	toggle_noise
	toggle_noise 1
	drum_note 1, 4
	octave 5
	drum_note 12, 4
	octave 6
	drum_note 1, 4
	drum_note 3, 4
	drum_note 1, 4
	octave 5
	drum_note 12, 4
	octave 8
.mainLoop:
	octave 6
	toggle_noise
	toggle_noise 1
	drum_note 1, 4
	drum_note 3, 4
	drum_note 1, 4
	octave 5
	drum_note 12, 4
	octave 6
	drum_note 1, 4
	drum_note 3, 4
	drum_note 1, 4
	octave 5
	drum_note 12, 4
	octave 6
	drum_note 1, 4
	drum_note 3, 4
	drum_note 1, 4
	octave 5
	drum_note 12, 4
	octave 6
	drum_note 1, 4
	drum_note 3, 4
	drum_note 1, 4
	octave 5
	drum_note 12, 4
	octave 6
	drum_note 1, 4
	drum_note 3, 4
	rest 16
	octave 8
	rest 16
	rest 16
	rest 16
	rest 16
	rest 16
	rest 16
	rest 8
	sound_loop 0, .mainLoop
