Music_RivalsTheme:
	channel_count 3
	channel 1, Music_RivalsTheme_Ch1
	channel 2, Music_RivalsTheme_Ch2
	channel 3, Music_RivalsTheme_Ch3

Music_RivalsTheme_Ch1:
	tempo 256
	volume 7, 7
	note_type 12, 15, 8
.mainLoop_Ch1:
	rest 2
	octave 5
	duty_cycle 1
	volume_envelope 5, 1
	note A_, 1
	rest 1
	note B_, 2
	rest 3
	note B_, 1
	octave 6
	note C#, 2
	rest 2
	octave 5
	note G#, 1
	octave 6
	rest 1
	note C#, 2
	rest 3
	octave 5
	note G#, 1
	note B_, 2
	rest 1
	note_type 6, 5, 1
	rest 2
	note_type 3, 5, 1
	note D_, 1
	rest 2
	note_type 1, 5, 1
	rest 1
	note_type 3, 5, 1
	octave 6
	note D_, 4
	octave 5
	note_type 1, 5, 1
	rest 2
	note_type 6, 5, 1
	note C#, 1
	rest 2
	note_type 1, 5, 1
	rest 6
	note_type 6, 5, 1
	note C#, 1
	note_type 1, 5, 1
	rest 6
	note_type 12, 5, 1
	rest 1
	note_type 6, 5, 1
	rest 1
	note_type 1, 5, 1
	rest 1
	note_type 6, 5, 1
	octave 6
	rest 1
	note_type 1, 5, 1
	rest 2
	note_type 6, 5, 1
	rest 1
	note D_, 3
	note_type 12, 5, 1
	rest 1
	note_type 6, 5, 1
	note C#, 4
	rest 1
	note C#, 2
	rest 1
	note C#, 4
	rest 1
	note_type 7, 5, 1
	rest 1
	note_type 6, 5, 1
	rest 1
	note_type 1, 5, 1
	rest 1
	note_type 6, 5, 1
	rest 1
	note_type 1, 5, 1
	rest 1
	note_type 6, 5, 1
	rest 1
	note_type 1, 5, 1
	rest 1
	note_type 6, 5, 1
	rest 1
	note_type 1, 5, 1
	rest 1
	note_type 6, 5, 1
	rest 1
	note_type 1, 5, 1
	rest 1
	note_type 6, 5, 1
	rest 1
	note_type 1, 5, 1
	rest 1
	note_type 6, 5, 1
	rest 1
	note_type 1, 5, 1
	rest 8
	note_type 12, 5, 1
	sound_jump .mainLoop_Ch1

Music_RivalsTheme_Ch2:
	note_type 12, 15, 8
.mainLoop_Ch2:
	rest 2
	octave 5
	duty_cycle 1
	volume_envelope 5, 1
	note E_, 1
	rest 1
	note E_, 2
	rest 3
	note E_, 1
	note E_, 2
	rest 2
	note C#, 1
	rest 1
	note C#, 2
	rest 3
	note C#, 1
	note C#, 2
	rest 1
	octave 4
	note_type 6, 5, 1
	rest 1
	note_type 1, 5, 1
	rest 6
	note_type 3, 5, 1
	note A_, 1
	rest 2
	note_type 1, 5, 1
	rest 1
	note_type 3, 5, 1
	octave 5
	note A_, 4
	octave 4
	note_type 1, 5, 1
	rest 2
	note_type 6, 5, 1
	note A_, 1
	note_type 1, 5, 1
	rest 4
	note_type 6, 5, 1
	rest 2
	note_type 1, 5, 1
	rest 2
	note_type 6, 5, 1
	note A_, 1
	note_type 12, 5, 1
	rest 2
	note_type 6, 5, 1
	octave 5
	rest 1
	note_type 1, 5, 1
	rest 6
	note_type 6, 5, 1
	rest 1
	note A_, 2
	rest 1
	note_type 1, 5, 1
	rest 6
	note_type 6, 5, 1
	note A_, 4
	rest 2
	note_type 12, 5, 1
	note A_, 1
	note A_, 2
	note_type 6, 5, 1
	rest 1
	note_type 1, 5, 1
	rest 6
	note_type 12, 5, 1
	rest 5
	sound_jump .mainLoop_Ch2

Music_RivalsTheme_Ch3:
	note_type 12, 1, 0
.mainLoop_Ch3:
	volume_envelope 1, 0
	octave 5
	note E_, 2
	note A_, 2
	note G#, 2
	note E_, 2
	note B_, 2
	note A_, 2
	note C#, 2
	note G#, 2
	note F#, 2
	note C#, 2
	note A_, 2
	note G#, 2
	octave 4
	note A_, 2
	octave 5
	note D_, 2
	note C#, 2
	octave 4
	note A_, 2
	octave 5
	note C#, 2
	octave 4
	note B_, 2
	note A_, 2
	note G#, 2
	note A_, 2
	note B_, 2
	octave 5
	note C#, 2
	note D_, 2
	note_type 12, 1, 0
	sound_jump .mainLoop_Ch3
