Music_Route1:
	channel_count 4
	channel 1, Music_Route1_Ch1
	channel 2, Music_Route1_Ch2
	channel 3, Music_Route1_Ch3
	channel 4, Music_Route1_Ch4

Music_Route1_Ch1:
	tempo 256
	volume 7, 7
	note_type 12, 15, 8
.mainLoop:
	octave 5
	transpose 0, 0
	duty_cycle 3
	note C_, 1
	note C_, 1
	octave 4
	note A_, 1
	note A_, 1
	rest 1
	note G_, 3
	rest 1
	note G_, 1
	note G_, 1
	note F_, 1
	note F_, 1
	rest 1
	note E_, 3
	rest 1
	note E_, 1
	note E_, 1
	note F_, 1
	note F_, 1
	rest 1
	note G_, 3
	rest 1
	note G_, 1
	note G_, 1
	note A_, 1
	note A_, 1
	rest 1
	octave 5
	note C_, 3
	rest 1
	note C_, 1
	note C_, 1
	octave 4
	note A_, 1
	note A_, 1
	rest 1
	note G_, 3
	rest 1
	note G_, 1
	note G_, 1
	note F_, 1
	note F_, 1
	rest 1
	note E_, 3
	rest 1
	note E_, 1
	note E_, 1
	note F_, 1
	note F_, 1
	rest 1
	note G_, 3
	rest 1
	note G_, 1
	note G_, 1
	note A_, 1
	note A_, 1
	rest 1
	octave 5
	note C_, 3
	rest 16
	rest 16
	rest 16
	rest 16
	rest 16
	rest 16
	rest 16
	octave 8
	rest 16
	rest 16
	rest 16
	rest 16
	rest 9
	sound_loop 0, .mainLoop

Music_Route1_Ch2:
	note_type 12, 15, 8
.mainLoop:
	duty_cycle 1
	octave 4
	note C_, 1
	rest 1
	octave 3
	note G_, 1
	octave 4
	note C_, 1
	rest 1
	octave 3
	note G_, 1
	octave 4
	note C_, 1
	rest 1
	octave 3
	note G_, 1
	octave 4
	note C_, 1
	rest 1
	octave 3
	note G_, 1
	octave 4
	note C_, 1
	rest 1
	octave 3
	note G_, 1
	octave 4
	note C_, 1
	rest 1
	octave 3
	note G_, 1
	octave 4
	note C_, 1
	rest 1
	octave 3
	note G_, 1
	octave 4
	note C_, 1
	rest 1
	note E_, 1
	note C_, 1
	rest 1
	note E_, 1
	note C_, 1
	rest 1
	note E_, 1
	note C_, 1
	octave 3
	rest 1
	note G_, 1
	octave 4
	note C_, 1
	rest 1
	octave 3
	note G_, 1
	octave 4
	note C_, 1
	rest 1
	octave 3
	note G_, 1
	octave 4
	note C_, 1
	rest 1
	octave 3
	note G_, 1
	octave 4
	note C_, 1
	rest 1
	octave 3
	note G_, 1
	octave 4
	note C_, 1
	rest 1
	octave 3
	note G_, 1
	octave 4
	note C_, 1
	rest 1
	octave 3
	note G_, 1
	octave 4
	note C_, 1
	rest 1
	octave 3
	note G_, 1
	octave 4
	note C_, 1
	rest 1
	octave 3
	note G_, 1
	octave 4
	note C_, 1
	rest 1
	octave 3
	note G_, 1
	octave 4
	note C_, 1
	rest 1
	octave 3
	note G_, 1
	octave 4
	note C_, 2
	octave 3
	note G_, 1
	octave 4
	note C_, 2
	octave 3
	note G_, 1
	octave 4
	note C_, 1
	rest 16
	rest 16
	rest 16
	rest 16
	rest 16
	rest 16
	rest 16
	rest 16
	rest 16
	rest 16
	rest 16
	rest 10
	octave 8
	sound_loop 0, .mainLoop

Music_Route1_Ch3:
	note_type 12, 1, 0
.mainLoop:
	octave 3
	note C_, 1
	rest 2
	note C_, 1
	rest 2
	note C_, 1
	rest 2
	note C_, 1
	rest 2
	note C_, 1
	rest 2
	note C_, 1
	rest 2
	note C_, 1
	rest 2
	note E_, 1
	rest 2
	note G_, 1
	rest 1
	note F_, 1
	note G_, 1
	rest 1
	note F_, 1
	note E_, 1
	rest 1
	note C_, 1
	note E_, 1
	rest 1
	note C_, 3
	rest 1
	note C_, 1
	rest 2
	note C_, 1
	rest 2
	note C_, 1
	rest 2
	note C_, 1
	rest 2
	note C_, 1
	rest 2
	note C_, 1
	rest 2
	note C_, 1
	rest 2
	note C_, 1
	rest 2
	note C_, 1
	rest 2
	note C_, 1
	rest 2
	note C_, 1
	rest 16
	rest 16
	rest 16
	rest 16
	rest 16
	rest 16
	rest 16
	rest 16
	rest 16
	rest 16
	octave 8
	rest 16
	rest 10
	sound_loop 0, .mainLoop

Music_Route1_Ch4:
	toggle_noise 0
	drum_speed 12
.mainLoop:
	rest 2
	octave 2
	toggle_noise
	toggle_noise 5
	drum_note 10, 1
	rest 2
	drum_note 10, 1
	rest 2
	drum_note 10, 1
	rest 2
	drum_note 10, 1
	rest 2
	drum_note 10, 1
	rest 2
	drum_note 10, 1
	rest 2
	drum_note 10, 1
	rest 2
	drum_note 10, 1
	rest 2
	drum_note 10, 1
	rest 2
	drum_note 10, 1
	rest 2
	drum_note 10, 1
	rest 2
	drum_note 10, 1
	rest 2
	drum_note 10, 1
	rest 2
	drum_note 10, 1
	rest 2
	drum_note 10, 1
	rest 2
	drum_note 10, 1
	rest 2
	drum_note 10, 1
	rest 2
	drum_note 10, 1
	rest 2
	drum_note 10, 1
	rest 2
	drum_note 10, 1
	rest 2
	drum_note 10, 1
	rest 2
	drum_note 10, 1
	rest 2
	drum_note 10, 1
	rest 16
	rest 16
	rest 16
	rest 16
	octave 8
	rest 16
	rest 16
	rest 16
	rest 16
	rest 16
	rest 16
	rest 16
	rest 11
	sound_loop 0, .mainLoop
