; Pokémon R/S/E - Verdanturf Town
; Demixed by Mmmmmm
; https://pastebin.com/3G7BnvBg

Music_VerdanturfTown:
	channel_count 3
	channel 1, Music_VerdanturfTown_Ch1
	channel 2, Music_VerdanturfTown_Ch2
	channel 3, Music_VerdanturfTown_Ch3

Music_VerdanturfTown_Ch1:
	tempo 112
	duty_cycle 2
	vibrato $12, $15
	pitch_offset 001
	note_type 12, 8, 4
	note __, 6
Music_VerdanturfTown_Ch1_loop_main:
	octave 2
	note D_, 4
	note A_, 4
	octave 3
	note F#, 4
	octave 2
	note A_, 4
	note F#, 4
	octave 3
	note C#, 4
	note A_, 4
	note C#, 4
	octave 2
	note B_, 4
	octave 3
	note F#, 4
	octave 2
	note A#, 4
	octave 3
	note F#, 4
	octave 2
	note A_, 4
	octave 3
	note F#, 4
	octave 2
	note G#, 4
	octave 3
	note F#, 4
	octave 2
	note G_, 4
	octave 3
	note D_, 4
	note B_, 4
	note D_, 4
	octave 2
	note E_, 4
	note B_, 4
	octave 3
	note G#, 4
	octave 2
	note B_, 4
	note A_, 4
	octave 3
	note G_, 4
	octave 2
	note E_, 4
	octave 3
	note D_, 4
	octave 2
	note A_, 4
	note G_, 4
	note E_, 4
	octave 1
	note A_, 4
	note D_, 4
	note A_, 4
	octave 2
	note F#, 4
	octave 1
	note A_, 4
	note F#, 4
	octave 2
	note C#, 4
	note A_, 4
	note C#, 4
	octave 1
	note B_, 4
	octave 2
	note F#, 4
	octave 1
	note A#, 4
	octave 2
	note F#, 4
	octave 1
	note A_, 4
	octave 2
	note F#, 4
	octave 1
	note G#, 4
	octave 2
	note F#, 4
	octave 1
	note G_, 4
	octave 2
	note D_, 4
	note B_, 4
	note D_, 4
	octave 1
	note E_, 4
	note B_, 4
	octave 2
	note G#, 4
	octave 1
	note B_, 4
	note A_, 4
	octave 2
	note G_, 4
	octave 1
	note E_, 4
	octave 2
	note D_, 4
	note A_, 4
	note G_, 4
	note E_, 4
	note C#, 4
	duty_cycle 0
	volume_envelope 7, 3
	octave 4
	note B_, 4
	octave 3
	note G_, 4
	octave 4
	note D_, 4
	note B_, 8
	octave 3
	note G_, 4
	octave 4
	note E_, 4
	octave 5
	note C#, 8
	octave 3
	note F#, 4
	octave 4
	note C#, 4
	note A_, 4
	note B_, 4
	note A_, 1
	note B_, 1
	note A_, 2
	note G_, 4
	note F#, 8
	octave 3
	note G_, 4
	octave 4
	note D_, 4
	note G_, 4
	note A_, 4
	note G_, 1
	note A_, 1
	note G_, 2
	note F#, 4
	note C#, 4
	octave 3
	note B_, 4
	octave 4
	note F#, 4
	note B_, 4
	note F#, 4
	octave 5
	note D_, 4
	octave 4
	note F#, 4
	octave 5
	note F#, 4
	octave 4
	note F#, 4
	note B_, 4
	octave 3
	note G_, 4
	octave 4
	note D_, 4
	note B_, 8
	octave 3
	note G_, 4
	octave 4
	note E_, 4
	octave 5
	note C#, 8
	octave 3
	note F#, 4
	octave 4
	note C#, 4
	note A_, 4
	note B_, 4
	note A_, 1
	note B_, 1
	note A_, 2
	note G_, 4
	note F#, 4
	volume_envelope 7, 2
	note E_, 2
	note G_, 2
	note B_, 2
	octave 5
	note D_, 2
	note D_, 2
	volume_envelope 6, 2
	note D_, 2
	note D_, 2
	volume_envelope 5, 2
	note D_, 2
	note D_, 2
	volume_envelope 4, 2
	note D_, 2
	note D_, 2
	volume_envelope 3, 2
	note D_, 2
	note D_, 2
	volume_envelope 1, 2
	note D_, 2
	note D_, 2
	note D_, 2
	volume_envelope 7, 2
	octave 4
	note A_, 2
	octave 5
	note D_, 2
	note E_, 2
	note G_, 2
	note G_, 2
	volume_envelope 6, 2
	note G_, 2
	note G_, 2
	volume_envelope 5, 2
	note G_, 2
	note G_, 2
	volume_envelope 4, 2
	note G_, 2
	note G_, 2
	volume_envelope 3, 2
	note G_, 2
	note G_, 2
	volume_envelope 2, 2
	note G_, 6
	duty_cycle 2
	volume_envelope 8, 4
	sound_jump, Music_VerdanturfTown_Ch1_loop_main
	
Music_VerdanturfTown_Ch2:
	duty_cycle 2
	vibrato $12, $25
	pitch_offset 1
	note_type 12, 10, 3
	octave 3
	note A_, 2
Music_VerdanturfTown_Ch2_loop_main:
	octave 4
	note D_, 2
	note E_, 2
	volume_envelope 10, 5
	note F#, 12
	volume_envelope 10, 3
	note G_, 4
	volume_envelope 10, 5
	note E_, 12
	volume_envelope 10, 3
	note F#, 4
	volume_envelope 10, 5
	note C#, 12
	volume_envelope 10, 3
	note D_, 4
	octave 3
	note B_, 4
	octave 4
	note C#, 3
	note D#, 1
	note D_, 2
	note C#, 2
	note D_, 2
	note E_, 2
	volume_envelope 10, 5
	note B_, 6
	volume_envelope 10, 7
	note D_, 16
	note __, 6
	volume_envelope 10, 3
	note F#, 4
	note E_, 4
	note D_, 1
	note E_, 1
	note D_, 2
	note C#, 4
	octave 3
	note B_, 4
	octave 4
	volume_envelope 10, 2
	note C#, 4
	note D_, 4
	note E_, 4
	note G_, 2
	note C#, 2
	duty_cycle 3
	volume_envelope 10, 7
	octave 3
	note D_, 12
	octave 2
	note A_, 4
	octave 3
	note E_, 12
	note G_, 4
	note F#, 8
	note A_, 2
	note G_, 1
	note E_, 1
	note D_, 12
	note B_, 2
	note A_, 2
	note G_, 2
	note F#, 2
	note G_, 12
	note D_, 4
	note C#, 8
	note B_, 8
	octave 4
	note C#, 4
	octave 3
	note B_, 1
	octave 4
	note C#, 1
	octave 3
	note B_, 2
	note A_, 4
	note G_, 4
	note F#, 4
	note E_, 4
	volume_envelope 20, 7
	octave 4
	note G_, 2
	note F#, 2
	note G_, 2
	note A_, 2
	note B_, 12
	note F#, 4
	note E_, 8
	note F#, 4
	note G_, 4
	note A_, 12
	note F#, 4
	note D_, 8
	note E_, 4
	note F#, 4
	note G_, 16
	note A_, 4
	note G_, 1
	note A_, 1
	note G_, 2
	note F#, 4
	note E_, 4
	note G_, 12
	note A_, 4
	volume_envelope 20, 5
	note F#, 10
	volume_envelope 20, 7
	note F#, 2
	note G_, 2
	note A_, 2
	note B_, 14
	volume_envelope 20, 2
	note B_, 2
	volume_envelope 20, 4
	octave 5
	note C#, 4
	note D_, 4
	note E_, 4
	note C#, 2
	volume_envelope 20, 7
	octave 4
	note A_, 14
	note F#, 4
	note B_, 4
	note A_, 1
	note B_, 1
	note A_, 2
	note G_, 4
	note F#, 4
	note F#, 6
	volume_envelope 20, 2
	note G_, 6
	volume_envelope 20, 7
	note D_, 12
	octave 3
	note B_, 4
	octave 4
	note D_, 4
	note F#, 6
	volume_envelope 20, 2
	note G_, 6
	volume_envelope 20, 7
	note G_, 11
	duty_cycle 2
	volume_envelope 20, 3
	note D#, 1
	note D_, 2
	note C#, 2
	sound_jump, Music_VerdanturfTown_Ch2_loop_main
	
Music_VerdanturfTown_Ch3:
	pitch_offset 0
	note_type 12, 1, 1
	note __, 16
	note __, 16
	note __, 16
	note __, 16
	note __, 16
	note __, 16
	note __, 16
	note __, 13
	vibrato $12, $24
	octave 6
	note D#, 1
	note D_, 2
	note C#, 2
	note D_, 2
	note E_, 2
	note F_, 1
	note F#, 11
	note G_, 3
	note F#, 1
	note E_, 12
	note F#, 3
	note D#, 1
	note D_, 2
	note C#, 2
	octave 5
	note B_, 2
	octave 6
	note C#, 2
	note D_, 2
	note C#, 1
	note C_, 1
	octave 5
	note B_, 6
	note A#, 2
	note B_, 2
	octave 6
	note C#, 2
	note D_, 2
	note E_, 2
	note F#, 2
	note D_, 2
	note B_, 5
	note D#, 1
	note D_, 16
	volume_envelope 2, 1
	note D_, 6
	volume_envelope 1, 1
	note F#, 4
	note E_, 4
	note D_, 1
	note E_, 1
	note D_, 2
	note C#, 4
	octave 5
	note B_, 4
	octave 6
	note C#, 4
	note D_, 4
	note E_, 4
	pitch_offset 1
	vibrato $12, $15
	volume_envelope 2, 5
	octave 2
	note E_, 2
	note F#, 2
	note G_, 4
	note __, 8
	note D_, 2
	note __, 2
	octave 3
	note C#, 2
	note __, 2
	note C#, 4
	note __, 2
	octave 2
	note E_, 2
	note G_, 4
	note F#, 4
	note __, 8
	note C#, 2
	note __, 2
	note B_, 2
	note __, 2
	note A_, 4
	note __, 2
	note D_, 2
	note F#, 2
	note D_, 2
	note G_, 4
	note __, 8
	note D_, 2
	note __, 2
	note A_, 2
	note __, 2
	note A_, 6
	note E_, 2
	note A#, 4
	note B_, 4
	note __, 8
	note F#, 2
	note __, 2
	octave 3
	note D_, 2
	note __, 2
	note C#, 4
	octave 2
	note D_, 2
	note B_, 2
	note F#, 4
	note G_, 4
	note __, 8
	note D_, 2
	note __, 2
	octave 3
	note C#, 2
	note __, 2
	note C#, 4
	note __, 2
	octave 2
	note E_, 2
	note G_, 4
	note F#, 4
	note __, 8
	note C#, 2
	note __, 2
	note B_, 2
	note __, 2
	note A_, 4
	note __, 2
	note F#, 2
	note A_, 2
	note C#, 2
	note E_, 6
	note B_, 2
	note __, 4
	octave 3
	note D_, 4
	note __, 2
	note G_, 2
	note D_, 4
	octave 2
	note G_, 2
	note __, 2
	note B_, 4
	note A_, 6
	octave 3
	note D_, 2
	note __, 4
	note E_, 12
	note __, 2
	sound_jump, Music_VerdanturfTown_Ch3